<svg width="25" height="25" viewBox="0 0 25 25" fill="none" xmlns="http://www.w3.org/2000/svg">
<path d="M19.8229 3.70833C18.0833 2.26042 15.9271 1.3125 13.5417 1.09375V3.1875C15.3437 3.38542 16.9896 4.10417 18.3438 5.1875L19.8229 3.70833ZM11.4583 3.1875V1.09375C9.07292 1.30208 6.91667 2.26042 5.17708 3.70833L6.65625 5.1875C8.03411 4.07762 9.69998 3.38381 11.4583 3.1875ZM5.1875 6.65625L3.70833 5.17708C2.26042 6.91667 1.3125 9.07292 1.09375 11.4583H3.1875C3.38542 9.65625 4.10417 8.01042 5.1875 6.65625ZM21.8125 11.4583H23.9063C23.6875 9.07292 22.7396 6.91667 21.2917 5.17708L19.8125 6.65625C20.9224 8.03411 21.6162 9.69998 21.8125 11.4583ZM7.29167 12.5L10.875 14.125L12.5 17.7083L14.125 14.125L17.7083 12.5L14.125 10.875L12.5 7.29167L10.875 10.875L7.29167 12.5Z" fill="#B1B1B1"/>
<path d="M12.5003 21.875C10.962 21.8747 9.44759 21.4942 8.09185 20.7672C6.73611 20.0403 5.58107 18.9895 4.72949 17.7084H7.29199V15.625H1.04199V21.875H3.12533V19.0625C5.19824 22.0209 8.61491 23.9584 12.5003 23.9584C17.5732 23.9584 21.8753 20.6563 23.3753 16.0834L21.3337 15.6146C20.0524 19.25 16.5837 21.875 12.5003 21.875Z" fill="#B1B1B1"/>
</svg>
