<svg width="26" height="26" viewBox="0 0 26 26" fill="none" xmlns="http://www.w3.org/2000/svg">
<path d="M13.0003 15.1667C12.4045 15.1667 11.8946 14.9543 11.4707 14.5297C11.046 14.1057 10.8337 13.5958 10.8337 13C10.8337 12.4042 11.046 11.8939 11.4707 11.4692C11.8946 11.0453 12.4045 10.8333 13.0003 10.8333C13.5962 10.8333 14.1064 11.0453 14.5311 11.4692C14.955 11.8939 15.167 12.4042 15.167 13C15.167 13.5958 14.955 14.1057 14.5311 14.5297C14.1064 14.9543 13.5962 15.1667 13.0003 15.1667ZM4.60449 19.8521C3.84616 18.9132 3.25033 17.8613 2.81699 16.6963C2.38366 15.5321 2.16699 14.3 2.16699 13C2.16699 11.6819 2.38366 10.4451 2.81699 9.28958C3.25033 8.13403 3.84616 7.08681 4.60449 6.14792C4.8031 5.91319 5.05155 5.79583 5.34983 5.79583C5.64738 5.79583 5.90449 5.90417 6.12116 6.12083C6.31977 6.31944 6.4281 6.56789 6.44616 6.86617C6.46421 7.16372 6.37394 7.43889 6.17533 7.69167C5.59755 8.43194 5.14616 9.24914 4.82116 10.1432C4.49616 11.0366 4.33366 11.9889 4.33366 13C4.33366 14.0111 4.49183 14.9634 4.80816 15.8567C5.12377 16.7509 5.57046 17.5681 6.14824 18.3083C6.34685 18.5611 6.44183 18.8366 6.43316 19.1349C6.42377 19.4325 6.31074 19.6896 6.09408 19.9062C5.87741 20.1229 5.62463 20.2269 5.33574 20.2182C5.04685 20.2089 4.8031 20.0868 4.60449 19.8521ZM7.69199 16.7646C7.31283 16.2229 7.01924 15.6361 6.81124 15.0042C6.60396 14.3722 6.50033 13.7042 6.50033 13C6.50033 12.2958 6.60396 11.6187 6.81124 10.9687C7.01924 10.3187 7.31283 9.73194 7.69199 9.20833C7.85449 8.97361 8.08488 8.85156 8.38316 8.84217C8.68071 8.8335 8.94685 8.94653 9.18158 9.18125C9.38019 9.37986 9.48383 9.62794 9.49249 9.9255C9.50188 10.2238 9.42533 10.5083 9.26283 10.7792C9.06421 11.1042 8.91508 11.4516 8.81541 11.8213C8.71646 12.1918 8.66699 12.5847 8.66699 13C8.66699 13.4153 8.71646 13.8078 8.81541 14.1776C8.91508 14.5481 9.06421 14.8958 9.26283 15.2208C9.42533 15.4917 9.49755 15.7806 9.47949 16.0875C9.46144 16.3944 9.3531 16.6472 9.15449 16.8458C8.93783 17.0625 8.68071 17.1618 8.38316 17.1437C8.08488 17.1257 7.85449 16.9993 7.69199 16.7646ZM16.8191 16.8187C16.6205 16.6201 16.5168 16.3717 16.5082 16.0734C16.4988 15.7759 16.5753 15.4917 16.7378 15.2208C16.9364 14.8958 17.0856 14.5481 17.1852 14.1776C17.2842 13.8078 17.3337 13.4153 17.3337 13C17.3337 12.5847 17.2842 12.1918 17.1852 11.8213C17.0856 11.4516 16.9364 11.1042 16.7378 10.7792C16.5753 10.5083 16.5031 10.2194 16.5212 9.9125C16.5392 9.60556 16.6475 9.35278 16.8462 9.15417C17.0628 8.9375 17.3203 8.8335 17.6186 8.84217C17.9161 8.85156 18.1462 8.97361 18.3087 9.20833C18.6878 9.73194 18.981 10.3187 19.1883 10.9687C19.3963 11.6187 19.5003 12.2958 19.5003 13C19.5003 13.7042 19.3963 14.3722 19.1883 15.0042C18.981 15.6361 18.6878 16.2229 18.3087 16.7646C18.1462 16.9993 17.9114 17.121 17.6045 17.1297C17.2975 17.1391 17.0357 17.0354 16.8191 16.8187ZM19.9066 19.9062C19.708 19.7076 19.5949 19.4549 19.5675 19.1479C19.5408 18.841 19.6267 18.5611 19.8253 18.3083C20.4031 17.5681 20.8545 16.7509 21.1795 15.8567C21.5045 14.9634 21.667 14.0111 21.667 13C21.667 11.9889 21.5088 11.0366 21.1925 10.1432C20.8769 9.24914 20.4302 8.43194 19.8524 7.69167C19.6538 7.43889 19.5588 7.16372 19.5675 6.86617C19.5769 6.56789 19.6899 6.31042 19.9066 6.09375C20.1232 5.87708 20.376 5.77308 20.6649 5.78175C20.9538 5.79114 21.1975 5.91319 21.3962 6.14792C22.1545 7.08681 22.7503 8.13403 23.1837 9.28958C23.617 10.4451 23.8337 11.6819 23.8337 13C23.8337 14.3 23.617 15.5321 23.1837 16.6963C22.7503 17.8613 22.1545 18.9132 21.3962 19.8521C21.1975 20.0868 20.9538 20.2089 20.6649 20.2182C20.376 20.2269 20.1232 20.1229 19.9066 19.9062Z" fill="#B1B1B1"/>
</svg>
